<svg width="72" height="72" viewBox="0 0 72 72" fill="none" xmlns="http://www.w3.org/2000/svg">
<path d="M23.409 18C25.176 18 26.766 18.153 28.224 18.465C29.673 18.774 30.909 19.284 31.953 19.989C32.982 20.694 33.786 21.63 34.365 22.806C34.926 23.967 35.205 25.419 35.205 27.135C35.205 28.995 34.785 30.549 33.942 31.788C33.093 33.03 31.842 34.047 30.174 34.833C32.445 35.49 34.128 36.639 35.244 38.271C36.366 39.918 36.915 41.889 36.915 44.199C36.915 46.074 36.558 47.685 35.841 49.038C35.1501 50.3709 34.1477 51.5173 32.919 52.38C31.6463 53.2662 30.2247 53.9166 28.722 54.3C27.1464 54.7136 25.5239 54.9213 23.895 54.918H6V18H23.409ZM22.356 32.916C23.796 32.916 24.99 32.574 25.932 31.881C26.868 31.197 27.321 30.069 27.321 28.524C27.321 27.666 27.168 26.958 26.868 26.403C26.5757 25.8691 26.1432 25.4251 25.617 25.119C25.0663 24.7924 24.4585 24.5735 23.826 24.474C23.1366 24.3454 22.4363 24.2841 21.735 24.291H14.13V32.916H22.356ZM22.809 48.633C23.61 48.633 24.372 48.564 25.089 48.402C25.812 48.246 26.454 47.994 27 47.619C27.546 47.259 27.996 46.77 28.32 46.146C28.647 45.528 28.806 44.721 28.806 43.752C28.806 41.85 28.269 40.497 27.207 39.678C26.142 38.868 24.714 38.466 22.965 38.466H14.13V48.636H22.809V48.633ZM48.504 48.51C49.605 49.584 51.192 50.124 53.256 50.124C54.735 50.124 56.013 49.749 57.09 49.005C58.152 48.258 58.8 47.46 59.049 46.635H65.514C64.476 49.851 62.901 52.149 60.747 53.532C58.62 54.921 56.031 55.611 53.007 55.611C50.901 55.611 49.005 55.272 47.307 54.6C45.6772 53.9653 44.2043 52.9848 42.99 51.726C41.7957 50.4379 40.8724 48.9229 40.275 47.271C39.6183 45.4443 39.2932 43.515 39.315 41.574C39.315 39.576 39.648 37.707 40.302 35.982C40.9228 34.3145 41.8761 32.7907 43.104 31.503C44.319 30.243 45.759 29.25 47.436 28.521C49.1995 27.7793 51.0971 27.4096 53.01 27.435C55.272 27.435 57.249 27.873 58.947 28.755C60.5936 29.5969 62.0214 30.8111 63.117 32.301C64.206 33.78 64.983 35.475 65.466 37.374C65.949 39.27 66.117 41.25 65.979 43.323H46.686C46.689 45.435 47.4 47.436 48.504 48.51ZM56.94 34.467C56.067 33.501 54.591 32.979 52.785 32.979C51.612 32.979 50.643 33.174 49.863 33.576C49.1498 33.9362 48.5171 34.4373 48.003 35.049C47.5515 35.6044 47.2168 36.2452 47.019 36.933C46.846 37.5066 46.7343 38.0969 46.686 38.694H58.632C58.458 36.822 57.816 35.439 56.94 34.467ZM45.186 20.478H60.153V24.123H45.186V20.478Z" fill="white"/>
</svg>
