<svg width="29" height="30" viewBox="0 0 29 30" fill="none" xmlns="http://www.w3.org/2000/svg">
<path d="M2.11111 28.5714C1.54815 28.5714 1.05556 28.3571 0.633334 27.9286C0.211111 27.5 0 27 0 26.4286V4.28571C0 3.71429 0.211111 3.21429 0.633334 2.78571C1.05556 2.35714 1.54815 2.14286 2.11111 2.14286H4.39815V0H6.68519V2.14286H18.6482V0H20.9352V2.14286H23.2222C23.7852 2.14286 24.2778 2.35714 24.7 2.78571C25.1222 3.21429 25.3333 3.71429 25.3333 4.28571V15.0357H23.2222V11.0714H2.11111V26.4286H13.3352V28.5714H2.11111ZM27.0574 20.75L24.5593 18.2143L25.5796 17.1786C25.7746 16.9881 26.0227 16.8929 26.324 16.8929C26.6253 16.8929 26.8698 16.9881 27.0574 17.1786L28.0778 18.2143C28.2654 18.4122 28.3593 18.664 28.3593 18.9699C28.3593 19.2757 28.2654 19.5238 28.0778 19.7143L27.0574 20.75ZM15.4463 30V27.4643L23.0463 19.75L25.5445 22.2857L17.9445 30H15.4463ZM2.11111 8.92857H23.2222V4.28571H2.11111V8.92857Z" fill="white"/>
</svg>
