<svg width="219" height="99" viewBox="0 0 219 99" fill="none" xmlns="http://www.w3.org/2000/svg">
<path d="M7.10646 86.4641C5.9666 86.4641 5.33335 85.7441 5.2067 84.3041C4.99561 81.8081 4.19349 76.0001 2.80034 66.8801C1.4494 57.8081 0.773926 52.2881 0.773926 50.3201C0.773926 46.6721 2.27262 43.7201 5.27002 41.4641C8.26742 39.2081 11.6237 38.0801 15.3387 38.0801C18.1251 38.0801 20.4048 38.9921 22.1779 40.8161C23.951 42.6401 24.8375 45.0881 24.8375 48.1601C24.8375 49.9841 24.3732 51.6641 23.4444 53.2001C22.5578 54.7361 21.4813 55.9361 20.2148 56.8001C17.5129 58.7201 15.2543 59.6801 13.439 59.6801C12.1725 59.6801 11.5392 58.9601 11.5392 57.5201C11.5392 56.2241 12.1725 55.5281 13.439 55.4321C14.7477 55.2881 16.3308 54.5201 18.1884 53.1281C20.0881 51.7361 21.038 50.1041 21.038 48.2321C21.038 46.3121 20.5314 44.8721 19.5182 43.9121C18.505 42.9041 16.9008 42.4001 14.7055 42.4001C12.5524 42.4001 10.3149 43.1201 7.99301 44.5601C5.7133 46.0001 4.57344 47.8241 4.57344 50.0321C4.57344 52.2401 5.46 59.2001 7.23311 70.9121L7.92968 66.1601C8.14077 64.7201 8.77402 64.0001 9.82944 64.0001C11.0959 64.0001 11.7292 64.7201 11.7292 66.1601C11.7292 66.4001 11.7081 66.6641 11.6659 66.9521L9.19619 84.3041C9.15397 84.7361 8.964 85.1921 8.62626 85.6721C8.28853 86.2001 7.78193 86.4641 7.10646 86.4641ZM64.8889 59.6801C64.8889 61.6001 62.9469 62.5601 59.0629 62.5601C57.2476 62.5601 55.8333 62.1041 54.8201 61.1921C53.8491 60.2801 53.3637 58.6961 53.3637 56.4401C53.3637 54.1841 53.1948 52.2401 52.857 50.6081C52.5193 48.9761 52.0549 48.1601 51.4639 48.1601C49.6908 48.1601 48.0021 50.0321 46.3979 53.7761C45.7223 55.3121 45.0047 56.8721 44.2448 58.4561C43.4849 59.9921 42.4717 61.3121 41.2052 62.4161C39.9809 63.4721 38.5455 64.0001 36.8991 64.0001C33.0996 64.0001 31.1998 59.8241 31.1998 51.4721C31.1998 45.4721 31.7697 39.6401 32.9096 33.9761C34.0917 28.3121 35.717 23.6561 37.7856 20.0081C39.8965 16.3121 42.1129 14.4641 44.4348 14.4641C46.7567 14.4641 48.5087 15.4241 49.6908 17.3441C50.8729 19.2641 51.4639 21.7601 51.4639 24.8321C51.4639 27.8561 50.704 30.8561 49.1842 33.8321C47.7066 36.7601 45.8913 39.1361 43.7382 40.9601C42.6828 41.9201 41.8807 42.4001 41.3318 42.4001C40.0653 42.4001 39.4321 41.6801 39.4321 40.2401C39.4321 39.6641 40.1498 38.7521 41.5851 37.5041C43.0205 36.2561 44.3926 34.4801 45.7013 32.1761C47.01 29.8241 47.6644 27.0881 47.6644 23.9681C47.6644 22.6721 47.4111 21.4961 46.9045 20.4401C46.3979 19.3361 45.5957 18.7841 44.4981 18.7841C43.2316 18.7841 41.8596 20.2961 40.382 23.3201C38.9466 26.2961 37.6801 30.3761 36.5824 35.5601C35.527 40.7441 34.9993 46.0721 34.9993 51.5441C34.9993 56.9681 35.6326 59.6801 36.8991 59.6801C38.6722 59.6801 40.3609 57.8081 41.9651 54.0641C42.6406 52.5281 43.3583 50.9921 44.1182 49.4561C44.8781 47.8721 45.8702 46.5521 47.0944 45.4961C48.361 44.3921 49.8174 43.8401 51.4639 43.8401C55.2634 43.8401 57.1632 47.9201 57.1632 56.0801C57.1632 57.5201 57.7753 58.2401 58.9996 58.2401C60.2661 58.2401 61.216 58.1201 61.8492 57.8801C62.4825 57.6401 62.8624 57.5201 62.9891 57.5201C64.2556 57.5201 64.8889 58.2401 64.8889 59.6801ZM91.3616 58.0961C91.3616 58.0961 92.0371 57.9041 93.3881 57.5201C94.6546 57.5201 95.2878 58.2401 95.2878 59.6801C95.2878 60.7361 94.6546 61.5041 93.3881 61.9841C92.6282 62.2721 91.8682 62.4161 91.1083 62.4161C90.3907 62.4161 89.6941 62.2241 89.0186 61.8401C88.3431 61.4561 87.8151 60.8801 87.4351 60.1121C86.8019 58.8641 86.3375 57.5201 86.042 56.0801L85.7887 54.8561C85.071 56.2481 83.319 57.8801 80.5327 59.7521C77.7886 61.6241 74.8545 62.5601 71.7305 62.5601C70.0418 62.5601 68.5642 61.8401 67.2977 60.4001C66.0312 58.9601 65.3979 57.2801 65.3979 55.3601C65.3979 50.7041 67.0866 46.6721 70.4639 43.2641C73.8413 39.8081 77.2609 38.0801 80.7226 38.0801C82.6224 38.0801 84.2478 38.4881 85.5987 39.3041C86.9919 40.0721 87.6884 40.8641 87.6884 41.6801C87.6884 43.1201 87.0552 43.8401 85.7887 43.8401C85.5354 43.8401 84.9232 43.6001 83.9522 43.1201C82.9812 42.6401 81.9047 42.4001 80.7226 42.4001C78.4429 42.4001 75.9521 43.6721 73.2503 46.2161C70.5484 48.7121 69.1974 51.7601 69.1974 55.3601C69.1974 56.0801 69.4507 56.7521 69.9573 57.3761C70.5062 57.9521 71.0972 58.2401 71.7305 58.2401C74.2213 58.2401 76.5432 57.4961 78.6962 56.0081C80.8493 54.4721 82.2213 53.2241 82.8124 52.2641C83.4034 51.2561 83.8889 50.3441 84.2689 49.5281C84.6488 48.7121 84.9232 48.1841 85.0921 47.9441C85.3032 47.6561 85.7253 47.5121 86.3586 47.5121C86.9919 47.5121 87.4773 47.7761 87.8151 48.3041C88.1532 48.8321 88.4698 49.6721 88.7653 50.8241C89.0608 51.9281 89.3563 53.1761 89.6519 54.5681C89.9474 55.9601 90.2007 56.8961 90.4118 57.3761C90.6651 57.8561 90.9817 58.0961 91.3616 58.0961ZM133.312 61.9841C131.032 62.8481 129.259 63.2801 127.993 63.2801C126.726 63.2801 125.734 62.7521 125.016 61.6961C124.299 60.6401 123.644 58.8401 123.053 56.2961C122.504 53.7521 122.082 52.4801 121.787 52.4801C120.689 52.4801 119.528 54.4001 118.304 58.2401C117.84 59.6801 117.08 61.0001 116.024 62.2001C114.969 63.4001 113.639 64.0001 112.035 64.0001C110.473 64.0001 109.248 63.2081 108.362 61.6241C107.475 60.0401 106.948 58.3121 106.779 56.4401C106.652 54.5681 106.441 52.8401 106.145 51.2561C105.85 49.6721 105.364 48.8801 104.689 48.8801C104.225 48.8801 103.887 49.0241 103.676 49.3121C103.465 49.6001 103.275 49.8881 103.106 50.1761C102.979 50.4161 102.831 50.6801 102.663 50.9681C102.536 51.2081 102.367 51.5441 102.156 51.9761C101.987 52.4081 101.776 52.8641 101.523 53.3441C100.678 55.0241 100.003 56.2721 99.4963 57.0881C98.4831 58.9121 96.9844 60.3041 95.0002 61.2641C94.2403 61.6481 93.6282 61.8401 93.1638 61.8401C91.8973 61.8401 91.264 61.1201 91.264 59.6801C91.264 58.7681 91.9395 58.0241 93.2904 57.4481C94.6414 56.8721 95.5912 56.0561 96.1401 55.0001C96.7311 53.8961 97.3855 52.6481 98.1031 51.2561C98.8208 49.8641 99.3063 48.9281 99.5596 48.4481C99.8551 47.9681 100.214 47.3921 100.636 46.7201C101.058 46.0001 101.438 45.5441 101.776 45.3521C102.663 44.8241 103.634 44.5601 104.689 44.5601C106.42 44.5601 107.729 45.3521 108.615 46.9361C109.502 48.5201 110.008 50.2481 110.135 52.1201C110.304 53.9921 110.536 55.7201 110.832 57.3041C111.127 58.8881 111.613 59.6801 112.288 59.6801C112.963 59.6801 113.597 59.0801 114.188 57.8801C114.821 56.6801 115.37 55.3601 115.834 53.9201C116.299 52.4801 117.037 51.1601 118.051 49.9601C119.106 48.7601 120.351 48.1601 121.787 48.1601C122.884 48.1601 123.687 48.4721 124.193 49.0961C124.7 49.6721 125.059 50.1281 125.27 50.4641C125.523 50.8001 125.734 51.3041 125.903 51.9761C126.114 52.6481 126.262 53.1521 126.346 53.4881C126.431 53.7761 126.557 54.3041 126.726 55.0721C127.233 57.7121 127.697 59.0081 128.119 58.9601C128.921 58.9601 129.956 58.7201 131.222 58.2401C132.489 57.7601 133.185 57.5201 133.312 57.5201C134.579 57.5201 135.212 58.2401 135.212 59.6801C135.212 60.7361 134.579 61.5041 133.312 61.9841ZM135.711 42.4001C134.445 42.4001 133.812 41.6801 133.812 40.2401C133.812 38.8001 134.445 38.0801 135.711 38.0801C142.382 38.0801 147.004 38.6561 149.58 39.8081C152.155 40.9601 153.442 42.7841 153.442 45.2801C153.442 46.4321 152.809 48.7121 151.543 52.1201C150.276 55.4801 149.643 58.0721 149.643 59.8961C149.643 61.6721 150.213 63.6161 151.353 65.7281C152.535 67.8881 153.696 70.0001 154.836 72.0641C156.018 74.1761 156.609 76.0961 156.609 77.8241C156.609 80.5121 155.785 82.6241 154.139 84.1601C152.535 85.6961 150.318 86.4641 147.49 86.4641C144.704 86.4641 142.36 85.6001 140.461 83.8721C138.561 82.1921 137.611 80.2001 137.611 77.8961C137.611 75.5921 138.392 73.7681 139.954 72.4241C141.558 71.1281 142.888 70.4801 143.944 70.4801C145.21 70.4801 145.843 71.2001 145.843 72.6401C145.843 73.1201 145.083 73.8881 143.564 74.9441C143.353 75.0881 143.205 75.1841 143.12 75.2321C143.036 75.2801 142.909 75.3761 142.74 75.5201C142.572 75.6641 142.445 75.7601 142.36 75.8081C142.318 75.9041 142.213 76.0241 142.044 76.1681C141.917 76.3121 141.833 76.4321 141.791 76.5281C141.748 76.6241 141.685 76.7441 141.601 76.8881C141.474 77.0801 141.411 77.3921 141.411 77.8241C141.411 78.9761 141.959 79.9841 143.057 80.8481C144.197 81.7121 145.759 82.1441 147.743 82.1441C151.12 82.1441 152.809 80.7281 152.809 77.8961C152.809 76.8881 152.218 75.3761 151.036 73.3601C149.896 71.3921 148.735 69.1601 147.553 66.6641C146.413 64.2161 145.843 61.8881 145.843 59.6801C145.843 57.4241 146.477 54.5681 147.743 51.1121C149.01 47.6561 149.643 45.7121 149.643 45.2801C149.643 43.3601 144.999 42.4001 135.711 42.4001ZM160.245 54.3521C160.33 54.2081 160.52 53.1761 160.815 51.2561C161.153 49.3361 161.533 47.4641 161.955 45.6401C162.42 43.7681 163.222 42.0401 164.362 40.4561C165.544 38.8721 166.958 38.0801 168.604 38.0801C171.813 38.0801 174.515 39.0401 176.71 40.9601C178.948 42.8321 180.066 45.2561 180.066 48.2321C180.066 51.2081 180.425 53.8721 181.143 56.2241C181.861 58.5281 182.81 59.6801 183.992 59.6801C184.795 59.6801 185.787 59.3921 186.969 58.8161C188.869 57.9521 189.987 57.5201 190.325 57.5201C191.592 57.5201 192.225 58.2401 192.225 59.6801C192.225 60.7361 191.592 61.5041 190.325 61.9841C187.961 63.3281 185.829 64.0001 183.929 64.0001C182.072 64.0001 180.531 63.1121 179.306 61.3361C178.082 59.5121 177.259 57.4961 176.837 55.2881C176.457 53.0801 176.267 50.7041 176.267 48.1601C176.267 46.4801 175.549 45.1121 174.114 44.0561C172.678 42.9521 170.863 42.4001 168.668 42.4001C166.895 42.4001 165.501 45.6161 164.488 52.0481C164.066 54.5441 163.771 55.9841 163.602 56.3681C162.884 58.0481 160.921 59.6801 157.712 61.2641C156.953 61.6481 156.34 61.8401 155.876 61.8401C154.61 61.8401 153.976 61.1201 153.976 59.6801C153.976 58.7681 154.61 58.0241 155.876 57.4481C158.367 56.2961 159.823 55.2641 160.245 54.3521Z" fill="white"/>
</svg>
