<svg width="44" height="41" viewBox="0 0 44 41" fill="none" xmlns="http://www.w3.org/2000/svg">
<path d="M9.79384 13.1635H0.533936V40.4998H9.79384V13.1635Z" fill="white"/>
<path d="M40.1823 15.6561C39.203 14.6169 38.0061 13.7988 36.6741 13.2584C35.3421 12.7179 33.9067 12.4679 32.467 12.5256C31.3804 12.5131 30.2979 12.6572 29.2539 12.9533C28.3703 13.1987 27.5419 13.6059 26.8121 14.1536C25.7388 14.9405 24.8293 15.9229 24.133 17.0472V13.1584H14.9055L14.9343 14.4823C14.9534 15.365 14.9631 18.0865 14.9631 22.647C14.9631 27.2074 14.9445 33.1585 14.9073 40.5H24.1384V25.2454C24.1116 24.4888 24.2162 23.7332 24.4477 23.0111C24.8284 22.0891 25.4416 21.2776 26.2295 20.6531C27.0716 20.0023 28.1204 19.6649 29.1909 19.7004C29.8763 19.6506 30.5631 19.7755 31.1849 20.0632C31.8067 20.3509 32.3425 20.7916 32.7402 21.3425C33.5711 22.7096 33.9668 24.2899 33.8766 25.88V40.5H43.1077V24.8336C43.3481 21.5208 42.3028 18.2416 40.1823 15.6561Z" fill="white"/>
<path d="M5.21619 0.00561498C3.8275 -0.0540926 2.47084 0.426679 1.4403 1.34371C0.969857 1.77409 0.598207 2.29817 0.350159 2.88098C0.102112 3.46378 -0.0166254 4.0919 0.00187242 4.7234C-0.013213 5.3481 0.103631 5.9691 0.345024 6.54716C0.586418 7.12522 0.947117 7.6478 1.40434 8.08189C1.89802 8.53984 2.48031 8.89554 3.11662 9.12784C3.75292 9.36014 4.43024 9.4643 5.1083 9.43412H5.16404C6.56386 9.49669 7.93169 9.01032 8.96689 8.08189C9.43466 7.65504 9.80335 7.13409 10.0479 6.55453C10.2924 5.97497 10.4069 5.35041 10.3837 4.7234C10.3925 4.0932 10.2694 3.46797 10.0219 2.88655C9.77445 2.30514 9.408 1.77998 8.94532 1.34371C8.44527 0.888379 7.85797 0.535544 7.2177 0.305801C6.57743 0.0760578 5.89702 -0.0259895 5.21619 0.00561498Z" fill="white"/>
</svg>
