<svg width="96" height="96" viewBox="0 0 96 96" fill="none" xmlns="http://www.w3.org/2000/svg">
<path d="M34.148 96C26.416 96 20.148 89.732 20.148 82C20.148 74.268 26.416 68 34.148 68H44.148C46.356 68 48.148 69.792 48.148 72V82C48.148 89.732 41.88 96 34.148 96ZM66 32H56C53.792 32 52 30.208 52 28V8C52 5.792 53.792 4 56 4H66C73.732 4 80 10.268 80 18C80 25.732 73.732 32 66 32ZM34 32H44C46.208 32 48 30.208 48 28V8C48 5.792 46.208 4 44 4H34C26.268 4 20 10.268 20 18C20 25.732 26.268 32 34 32ZM34 64H44C46.208 64 48 62.208 48 60V40C48 37.792 46.208 36 44 36H34C26.268 36 20 42.268 20 50C20 57.732 26.268 64 34 64ZM64 36C60.8174 36 57.7652 37.2643 55.5147 39.5147C53.2643 41.7652 52 44.8174 52 48C52 51.1826 53.2643 54.2348 55.5147 56.4853C57.7652 58.7357 60.8174 60 64 60C67.1826 60 70.2348 58.7357 72.4853 56.4853C74.7357 54.2348 76 51.1826 76 48C76 44.8174 74.7357 41.7652 72.4853 39.5147C70.2348 37.2643 67.1826 36 64 36Z" fill="white"/>
</svg>
